{"title":"Stay 2005 BRRip 720p x264 AAC - PRiSTiNE [P2PDL]","uid":8431273,"size":617477131,"categoryP":"video","categoryS":"hd___movies","magnet":"?xt=urn:btih:5633bcd768f9cfc5b39a1663013c2cdee6542051&amp;dn=Stay+2005+BRRip+720p+x264+AAC+-+PRiSTiNE+%5BP2PDL%5D&amp;tr=udp%3A%2F%2Ftracker.openbittorrent.com%3A80&amp;tr=udp%3A%2F%2Fopen.demonii.com%3A1337&amp;tr=udp%3A%2F%2Ftracker.coppersurfer.tk%3A6969&amp;tr=udp%3A%2F%2Fexodus.desync.com%3A6969","seeders":0,"leechers":1,"uploader":"Vitamin_X","files":-1,"time":1367503997,"description":"_________________________  Visit us at _________________________\n  &lt;a href=&quot;\nhttp://p2pdl.com&quot; rel=&quot;nofollow&quot; target=&quot;_NEW&quot;&gt;\nhttp://p2pdl.com&lt;/a&gt;  ____________________________ &lt;a href=&quot; http://p2pdl.com&quot; rel=&quot;nofollow&quot; target=&quot;_NEW&quot;&gt; http://p2pdl.com&lt;/a&gt;\n\n\nStay 2005 BRRip 720p x264 AAC - PRiSTiNE [P2PDL]\n\nGenre: Drama | Mystery | Thriller\nPlot: This movie focuses on the attempts of a psychiatrist \nto prevent one of his patients from committing suicide \nwhile trying to maintain his own grip on reality.\nDirector: Marc Forster\nStars:  Ewan McGregor, Ryan Gosling, Kate Burton\nRated: Rated R for language and some disturbing images\n\nInfo: &lt;a href=&quot;\nhttp://www.imdb.com/title/tt0371257/&quot; rel=&quot;nofollow&quot; target=&quot;_NEW&quot;&gt;\nhttp://www.imdb.com/title/tt0371257/&lt;/a&gt;\n\nGeneral\nComplete name                  : Stay 2005 BRRip 720p x264 AAC - PRiSTiNE.mp4\nFormat                         : MPEG-4\nFile size                      : 581 MiB\nDuration                       : 1h 38mn\nOverall bit rate mode          : Variable\nOverall bit rate               : 822 Kbps\n\nVideo\nFormat                         : AVC\nFormat/Info                    : Advanced Video Codec\nFormat profile                 : High &lt;a class=&quot;__cf_email__&quot; href=&quot;/cdn-cgi/l/email-protection&quot; data-cfemail=&quot;eedfdeaea2dac0df&quot;&gt;[email&amp;#160;protected]&lt;/a&gt;&lt;script data-cfhash='f9e31' type=&quot;text/javascript&quot;&gt;\n/* &lt;![CDATA[ */!function(){try{var t=&quot;currentScript&quot;in document?document.currentScript:function(){for(var t=document.getElementsByTagName(&quot;script&quot;),e=t.length;e--;)if(t[e].getAttribute(&quot;data-cfhash&quot;))return t[e]}();if(t&amp;&amp;t.previousSibling){var e,r,n,i,c=t.previousSibling,a=c.getAttribute(&quot;data-cfemail&quot;);if(a){for(e=&quot;&quot;,r=parseInt(a.substr(0,2),16),n=2;a.length-n;n+=2)i=parseInt(a.substr(n,2),16)^r,e+=String.fromCharCode(i);e=document.createTextNode(e),c.parentNode.replaceChild(e,c)}t.parentNode.removeChild(t);}}catch(u){}}()/* ]]&gt; */&lt;/script&gt;\nBit rate                       : 739 Kbps\nWidth                          : 1 280 pixels\nHeight                         : 544 pixels\nDisplay aspect ratio           : 2.35:1\nFrame rate mode                : Constant\nFrame rate                     : 23.976 fps\nBit depth                      : 10 bits\nStream size                    : 523 MiB (90%)\nWriting library                : x264 core 130 r2273 b3065e6\n\nAudio\nFormat                         : AAC\nFormat/Info                    : Advanced Audio Codec\nBit rate                       : 79.8 Kbps\nChannel(s)                     : 2 channels\nChannel positions              : Front: L R\nSampling rate                  : 48.0 KHz / 24.0 KHz\nStream size                    : 56.5 MiB (10%)\nLanguage                       : English\n\nSubtitle                       : Yes (English)\nSource                         : 720p.BluRay.DTS.x264-CRiSC (Thanks)\n\nScreenshots:\n &lt;a href=&quot;\nhttp://www.ultraimg.com/images/i0BYW.jpg&quot; rel=&quot;nofollow&quot; target=&quot;_NEW&quot;&gt;\nhttp://www.ultraimg.com/images/i0BYW.jpg&lt;/a&gt; &lt;a href=&quot;\nhttp://www.ultraimg.com/images/I0Vs1.jpg&quot; rel=&quot;nofollow&quot; target=&quot;_NEW&quot;&gt;\nhttp://www.ultraimg.com/images/I0Vs1.jpg&lt;/a&gt; &lt;a href=&quot;\nhttp://www.ultraimg.com/images/Ie9kq.jpg&quot; rel=&quot;nofollow&quot; target=&quot;_NEW&quot;&gt;\nhttp://www.ultraimg.com/images/Ie9kq.jpg&lt;/a&gt; &lt;a href=&quot;\nhttp://www.ultraimg.com/images/FjIxf.jpg&quot; rel=&quot;nofollow&quot; target=&quot;_NEW&quot;&gt;\nhttp://www.ultraimg.com/images/FjIxf.jpg&lt;/a&gt; &lt;a href=&quot;\nhttp://www.ultraimg.com/images/dqzGm.jpg&quot; rel=&quot;nofollow&quot; target=&quot;_NEW&quot;&gt;\nhttp://www.ultraimg.com/images/dqzGm.jpg&lt;/a&gt;\n\n----------------------------------------------------------------------------------------------------\n\n\nEncoded using revolutionary 10bit encoding, which enables us to provide you more crispier \nand sharper images at small sizes, just make sure you follow our instructions without a fault.\nRecommend to you to use latest version of VLC player. Install K-Lite Codec Pack or shark007 codecs\nin case of any kind of problem in playback (For non-VLC Media Player users). Alternatively, install\nCore AVC codecs, the fastest decoder that there is coupled with Community Center Codec Pack and play\non Windows Media Player Classic. Check sample to be sure.\nEnjoy!\n\nEncoder Notes:Looking For Early Access To Anything You Can Provide DVDScr, R5, DVDR, BluRay, Direct\nAudio, Music Releases and Seedboxes. We require dedicated servers, so as to do more \nand fast releases of movies.\nIf You Got anything to offer please contact us at &quot;&lt;a class=&quot;__cf_email__&quot; href=&quot;/cdn-cgi/l/email-protection&quot; data-cfemail=&quot;45353722052d30362d6b262a28&quot;&gt;[email&amp;#160;protected]&lt;/a&gt;&lt;script data-cfhash='f9e31' type=&quot;text/javascript&quot;&gt;\n/* &lt;![CDATA[ */!function(){try{var t=&quot;currentScript&quot;in document?document.currentScript:function(){for(var t=document.getElementsByTagName(&quot;script&quot;),e=t.length;e--;)if(t[e].getAttribute(&quot;data-cfhash&quot;))return t[e]}();if(t&amp;&amp;t.previousSibling){var e,r,n,i,c=t.previousSibling,a=c.getAttribute(&quot;data-cfemail&quot;);if(a){for(e=&quot;&quot;,r=parseInt(a.substr(0,2),16),n=2;a.length-n;n+=2)i=parseInt(a.substr(n,2),16)^r,e+=String.fromCharCode(i);e=document.createTextNode(e),c.parentNode.replaceChild(e,c)}t.parentNode.removeChild(t);}}catch(u){}}()/* ]]&gt; */&lt;/script&gt;&quot;.\n\nFace book Fan Page:   &lt;a href=&quot;\nhttp://www.fb.me/p2pdl&quot; rel=&quot;nofollow&quot; target=&quot;_NEW&quot;&gt;\nhttp://www.fb.me/p2pdl&lt;/a&gt;","torrent":{"xt":"urn:btih:5633bcd768f9cfc5b39a1663013c2cdee6542051","amp;dn":"Stay+2005+BRRip+720p+x264+AAC+-+PRiSTiNE+%5BP2PDL%5D","amp;tr":["udp%3A%2F%2Ftracker.openbittorrent.com%3A80","udp%3A%2F%2Fopen.demonii.com%3A1337","udp%3A%2F%2Ftracker.coppersurfer.tk%3A6969","udp%3A%2F%2Fexodus.desync.com%3A6969"],"infoHash":"5633bcd768f9cfc5b39a1663013c2cdee6542051","infoHashBuffer":{"type":"Buffer","data":[86,51,188,215,104,249,207,197,179,154,22,99,1,60,44,222,230,84,32,81]},"announce":[],"urlList":[]}}